<svg xmlns="http://www.w3.org/2000/svg" xmlns:xlink="http://www.w3.org/1999/xlink" width="500" zoomAndPan="magnify" viewBox="0 0 375 374.999991" height="500" preserveAspectRatio="xMidYMid meet" version="1.0"><defs><clipPath id="c1e4a013e0"><path d="M 202 28 L 361.847656 28 L 361.847656 168 L 202 168 Z M 202 28 " clip-rule="nonzero"/></clipPath></defs><path fill="#6c2bb3" d="M 87.609375 279.050781 C 89.804688 277.5 92.417969 276.15625 95.28125 274.980469 C 89.5625 268.96875 84.652344 262.089844 79.101562 255.84375 C 60.4375 256.8125 49.386719 264.8125 53.074219 281.078125 C 57.453125 285.039062 61.429688 289.4375 65.753906 293.472656 C 69.746094 297.203125 74.136719 300.292969 78.515625 303.449219 C 75.730469 294.933594 77.496094 286.179688 87.609375 279.050781 " fill-opacity="1" fill-rule="nonzero"/><path fill="#6c2bb3" d="M 85.191406 60.558594 C 87.886719 57.5 91.082031 55.035156 94.238281 52.472656 C 95.910156 51.113281 97.464844 49.609375 99.273438 48.4375 C 100.839844 47.421875 102.402344 46.457031 103.828125 45.246094 C 104.042969 45.058594 104.203125 44.863281 104.3125 44.65625 C 106.378906 43.414062 108.421875 42.210938 110.199219 41.148438 C 138.121094 26.722656 181.15625 31.507812 220.847656 42.285156 C 219.65625 44.679688 218.550781 47.117188 217.71875 49.671875 C 217.128906 51.460938 216.746094 53.265625 216.558594 55.082031 C 168.894531 46.59375 117.34375 44.253906 83.589844 62.316406 C 84.128906 61.738281 84.664062 61.15625 85.191406 60.558594 " fill-opacity="1" fill-rule="nonzero"/><path fill="#6c2bb3" d="M 30.382812 145.15625 C 31.207031 140.574219 32.042969 135.996094 33.179688 131.484375 C 34.175781 127.515625 35.933594 123.894531 37.238281 120.054688 C 37.832031 119.710938 38.199219 119.082031 37.992188 118.277344 C 38.640625 116.84375 39.347656 115.300781 40.125 113.601562 C 55.539062 83.472656 102.367188 78.394531 155.941406 86.710938 C 158.03125 96.734375 161.445312 106.371094 164.8125 116.023438 C 75.160156 108.34375 41.496094 130.238281 29.203125 150.828125 C 29.636719 148.945312 30.035156 147.054688 30.382812 145.15625 " fill-opacity="1" fill-rule="nonzero"/><path fill="#6c2bb3" d="M 27.894531 232.984375 C 27.269531 230.695312 26.253906 228.347656 25.929688 226.003906 C 25.703125 224.371094 25.628906 222.910156 24.703125 221.585938 C 24.171875 218.707031 23.679688 215.867188 23.25 213.398438 C 19.332031 175.316406 52.929688 162.097656 100.136719 164.085938 C 100.703125 165.679688 101.316406 167.265625 101.984375 168.828125 C 106.773438 180.074219 113.65625 190.15625 120.289062 200.382812 C 56.847656 198.976562 28.386719 216.691406 35.402344 253.492188 C 34.605469 251.878906 33.832031 250.257812 33.117188 248.59375 C 33.03125 248.398438 32.933594 248.234375 32.820312 248.097656 C 31.421875 242.984375 29.300781 238.105469 27.894531 232.984375 " fill-opacity="1" fill-rule="nonzero"/><path fill="#ffffff" d="M 345.710938 108.125 C 304.304688 94.421875 272.832031 44.714844 290.457031 50.441406 C 335.449219 65.0625 345.710938 108.125 346.082031 108.230469 C 345.96875 108.199219 345.820312 108.160156 345.710938 108.125 " fill-opacity="1" fill-rule="nonzero"/><g clip-path="url(#c1e4a013e0)"><path fill="#ffffff" d="M 243.34375 46.738281 C 244.789062 38.875 254.238281 38.035156 268.007812 44.554688 C 261.71875 38.3125 250.886719 33.71875 242.851562 31.5 C 213.253906 23.335938 191.847656 33.882812 208.871094 65.164062 C 235.820312 114.683594 318.722656 161.792969 361.859375 167.320312 C 361.859375 167.320312 242.613281 73.261719 243.34375 46.738281 " fill-opacity="1" fill-rule="nonzero"/></g><path fill="#ffffff" d="M 351.414062 254.039062 C 304.726562 250.777344 131.488281 149.328125 122.765625 65.335938 C 119.226562 31.238281 152.171875 24.382812 163.070312 22.523438 C 166.921875 21.863281 172.082031 21.113281 175.972656 20.730469 C 216.304688 16.742188 245.953125 28.25 245.953125 28.25 C 215.167969 21.269531 148.761719 11.339844 173.769531 69.382812 C 204.417969 132.929688 351.414062 254.039062 351.414062 254.039062 " fill-opacity="1" fill-rule="nonzero"/><path fill="#ffffff" d="M 298.074219 325.277344 C 250.539062 329.132812 18.738281 178.164062 59.097656 87.207031 C 60.234375 84.644531 62.136719 80.351562 67.867188 73.953125 C 67.867188 73.953125 73.039062 68.632812 74.84375 66.941406 C 87.441406 55.101562 88.347656 55.09375 96.625 49.4375 C 100.675781 46.914062 106.035156 43.476562 110.199219 41.148438 C 92.925781 52.027344 79.886719 68.277344 101.21875 113.097656 C 145.453125 197.128906 298.074219 325.277344 298.074219 325.277344 " fill-opacity="1" fill-rule="nonzero"/><path fill="#ffffff" d="M 47.074219 175.171875 C 38.457031 156.929688 30.101562 135.625 40.125 113.601562 C 32.699219 129.371094 31.136719 132.925781 26.976562 148.550781 C 25.4375 154.328125 24.210938 162.226562 23.191406 168.113281 C 13.144531 246.542969 166.417969 349.128906 219.554688 359.476562 C 219.554688 359.476562 78.523438 234.464844 47.074219 175.171875 " fill-opacity="1" fill-rule="nonzero"/><path fill="#ffffff" d="M 100.167969 337.242188 C 72.707031 318.472656 58.421875 301.792969 43.21875 273.632812 C 40.828125 269.210938 37.886719 263.175781 35.824219 258.59375 C 30.132812 244.007812 29.535156 242.480469 26.746094 231.703125 C 25.601562 226.230469 24.09375 218.921875 23.25 213.398438 C 25.347656 223.710938 26.050781 227.183594 32.945312 240.929688 C 70.125 306.179688 128.601562 350.398438 160.746094 358.671875 C 160.746094 358.671875 138.839844 363.671875 100.167969 337.242188 " fill-opacity="1" fill-rule="nonzero"/></svg>